<svg
  version="1.1"
  id="Layer_1"
  xmlns="http://www.w3.org/2000/svg"
  xmlns:xlink="http://www.w3.org/1999/xlink"
  x="0px"
  y="0px"
  viewBox="0 0 326.43 111.29"
  style="enable-background: new 0 0 326.43 111.29"
  xml:space="preserve"
>
  <g>
    <path
      style="fill: #b8179d"
      d="M42.66,52.08c-3.22-1.92-6.36-2.9-9.33-2.9c-2.25,0-4.23,0.43-5.89,1.27c-1.37,0.68-2.92,1.87-4.61,3.53v-3.49 H10.82v48.52h12.01V73.88c0-8.77,2.76-13.03,8.45-13.03c1.86,0,3.81,0.72,5.79,2.15l0.5,0.36l5.51-11.02L42.66,52.08z"
    />
    <path
      style="fill: #c42289"
      d="M79.67,55.27c-4.25-4.05-9.07-6.1-14.35-6.1c-6.53,0-12.04,2.45-16.38,7.29c-4.32,4.82-6.52,10.92-6.52,18.14 c0,7.34,2.19,13.56,6.52,18.48c4.37,4.84,9.98,7.29,16.67,7.29c4.98,0,9.7-1.91,14.06-5.69v4.32h12.06V50.49H79.67V55.27z M76.74,85.52c-2.39,2.67-5.57,4.02-9.46,4.02c-3.63,0-6.68-1.4-9.06-4.16c-2.34-2.75-3.53-6.38-3.53-10.78 c0-4.11,1.22-7.6,3.62-10.38c2.42-2.73,5.47-4.12,9.07-4.12c3.82,0,6.97,1.37,9.36,4.06c2.41,2.78,3.63,6.37,3.63,10.68 C80.36,79.16,79.14,82.75,76.74,85.52z"
    />
    <rect x="156.81" y="50.49" style="fill: #db3763" width="12.01" height="48.52" />
    <path
      style="fill: #db3763"
      d="M162.79,23.68c-2.08,0-3.9,0.76-5.39,2.25c-1.49,1.49-2.25,3.29-2.25,5.34c0,2.15,0.76,3.99,2.25,5.49 c1.49,1.49,3.32,2.25,5.44,2.25c2.12,0,3.93-0.76,5.39-2.25c1.49-1.49,2.25-3.32,2.25-5.44c0-2.12-0.76-3.93-2.25-5.39 C166.74,24.44,164.91,23.68,162.79,23.68z"
    />
    <path
      style="fill: #e44053"
      d="M202.46,49.18c-7.16,0-13.32,2.48-18.3,7.36c-4.99,4.89-7.52,10.9-7.52,17.87c0,7.39,2.48,13.61,7.37,18.5 c4.89,4.95,11.03,7.47,18.26,7.47c7.29,0,13.53-2.46,18.55-7.32c4.99-4.89,7.52-11.03,7.52-18.26c0-7.16-2.51-13.29-7.47-18.21 C215.84,51.67,209.65,49.18,202.46,49.18z M212.36,85.57c-2.45,2.64-5.78,3.98-9.9,3.98c-4.09,0-7.42-1.35-9.9-4.02 c-2.43-2.65-3.67-6.32-3.67-10.91c0-4.26,1.27-7.79,3.76-10.47c2.49-2.67,5.79-4.03,9.81-4.03c4.09,0,7.42,1.36,9.9,4.03 c2.46,2.65,3.71,6.25,3.71,10.71C216.08,79.31,214.83,82.92,212.36,85.57z"
    />
    <path
      style="fill: #f24e3d"
      d="M263.69,78.27c0,7.59-2.88,11.28-8.79,11.28c-5.91,0-8.79-3.69-8.79-11.28V50.49H234.1v28.01 c0,4.4,0.47,7.78,1.4,10.03c0.97,2.54,2.64,4.86,4.97,6.89c3.79,3.29,8.64,4.96,14.43,4.96c5.82,0,10.69-1.67,14.48-4.96 c2.29-2.03,3.93-4.35,4.88-6.9c0.96-2.8,1.44-6.17,1.44-10.02V50.49h-12.01V78.27z"
    />
    <path
      style="fill: #d12e74"
      d="M134.75,34.64v20.63c-4.26-4.05-9.09-6.1-14.4-6.1c-6.53,0-12.02,2.47-16.33,7.34 c-4.32,4.82-6.52,10.91-6.52,18.09c0,7.34,2.19,13.56,6.52,18.48c4.37,4.84,9.95,7.29,16.57,7.29c5.21,0,9.96-1.9,14.15-5.66v4.29 h12.06V22.59L134.75,34.64z M131.81,85.52c-2.39,2.67-5.57,4.02-9.46,4.02c-3.63,0-6.68-1.4-9.06-4.16 c-2.34-2.75-3.53-6.38-3.53-10.78c0-4.11,1.22-7.6,3.62-10.38c2.42-2.73,5.47-4.12,9.07-4.12c3.82,0,6.97,1.37,9.36,4.06 c2.41,2.78,3.63,6.37,3.63,10.68C135.43,79.16,134.21,82.75,131.81,85.52z"
    />
    <path
      style="fill: #db3763"
      d="M176.78,43.2c-0.42,0-0.85-0.13-1.22-0.4c-0.93-0.67-1.14-1.98-0.46-2.91c4.31-5.94,3.67-14.02-1.53-19.22 c-4.31-4.31-10.96-5.55-16.53-3.08c-1.05,0.47-2.28-0.01-2.75-1.06c-0.47-1.05,0.01-2.28,1.06-2.74 c7.14-3.16,15.64-1.58,21.16,3.94c6.65,6.65,7.48,17,1.96,24.6C178.05,42.9,177.42,43.2,176.78,43.2z"
    />
    <path
      style="fill: #fe592a"
      d="M312.66,57.02c-2.12-3.26-5.19-5.74-8.96-6.98c-3.47-1.14-7.38-1.09-10.83,0.09c-2.04,0.7-3.9,1.85-5.48,3.32 c-2.92,2.79-4.4,6.36-4.4,10.62c0,3.23,0.88,5.92,2.61,7.99c1.34,1.61,3.66,3.23,6.9,4.81c1.14,0.55,2.26,1.09,3.37,1.61 c2.26,1.06,4.5,2.04,6.14,4.01c0.72,0.86,1.24,1.92,1.25,3.04c0.01,1.48-0.93,2.87-2.23,3.59c-1.29,0.71-2.88,0.78-4.3,0.38 c-1.38-0.39-2.78-1.22-3.72-2.31c-0.55-0.64-2.18-2.69-2.18-3.49l-0.24-0.41l-10.25,4.75l0.19,0.46 c3.39,7.94,9.24,11.97,17.4,11.97c4.76,0,8.88-1.52,12.24-4.52c3.48-3.18,5.24-7.18,5.24-11.89c0-3.7-1.06-6.69-3.16-8.89 c-2.06-2.15-6.07-4.53-11.92-7.04c-3.94-1.67-6.02-3.37-6.02-4.93c0-0.9,0.3-1.61,0.91-2.18c1.42-1.32,3.64-1.41,5.35-0.86 c0.89,0.29,1.67,0.83,2.44,1.36c0.26,0.18,1.53,1.27,1.84,1.9"
    />
  </g>
</svg>
